/* XPM */
static char const * gear_sml_xpm[] = {
"16 16 127 2",
"  	c None",
". 	c #679BC0",
"+ 	c #C6DDEE",
"@ 	c #D3E6F4",
"# 	c #D5E7F4",
"$ 	c #94BBD6",
"% 	c #6298BC",
"& 	c #F1FCFF",
"* 	c #DFF1FF",
"= 	c #CDE3F4",
"- 	c #C3DBEE",
"; 	c #DEF0FF",
"> 	c #DBEEFF",
", 	c #BFDBEE",
"' 	c #196CA4",
") 	c #D2EAFD",
"! 	c #CDE8FC",
"~ 	c #CFE9FC",
"{ 	c #CFE9FD",
"] 	c #B5D5EB",
"^ 	c #186DA6",
"/ 	c #CAE7FC",
"( 	c #BBDFF9",
"_ 	c #BCDFF9",
": 	c #BCE0FA",
"< 	c #BADEF9",
"[ 	c #CAE4F6",
"} 	c #86B7DA",
"| 	c #5A93BB",
"1 	c #5B97BF",
"2 	c #ABD2EE",
"3 	c #A2CFED",
"4 	c #ABD6F6",
"5 	c #A7D5F6",
"6 	c #A6D1EE",
"7 	c #92C0E0",
"8 	c #AED6F2",
"9 	c #A8D5F5",
"0 	c #AFD9F7",
"a 	c #B3D9F4",
"b 	c #458EBE",
"c 	c #085991",
"d 	c #8EBFE2",
"e 	c #8DC7F1",
"f 	c #8DC8F1",
"g 	c #89C6F1",
"h 	c #90C6EB",
"i 	c #3484B8",
"j 	c #166CA4",
"k 	c #4B88B1",
"l 	c #8BC4EC",
"m 	c #8CC7F1",
"n 	c #8EC8F0",
"o 	c #A1D1F4",
"p 	c #5097C5",
"q 	c #1B6DA4",
"r 	c #619CC3",
"s 	c #84C5F1",
"t 	c #71B9EB",
"u 	c #72BAEC",
"v 	c #70AED8",
"w 	c #2478AF",
"x 	c #82BFEA",
"y 	c #70B9EB",
"z 	c #7FC1EF",
"A 	c #98C4E0",
"B 	c #3587BB",
"C 	c #1A6CA3",
"D 	c #3F81AE",
"E 	c #6CB5E5",
"F 	c #61B2E8",
"G 	c #76B7E1",
"H 	c #2577AF",
"I 	c #6DB5E6",
"J 	c #63B3E8",
"K 	c #ADD2EA",
"L 	c #1D76B0",
"M 	c #60AFE2",
"N 	c #56ACE5",
"O 	c #59AEE5",
"P 	c #74B1D9",
"Q 	c #98BAD2",
"R 	c #82BFE7",
"S 	c #57ACE5",
"T 	c #55ABE4",
"U 	c #80C1EC",
"V 	c #4F92BE",
"W 	c #66AAD7",
"X 	c #53ABE5",
"Y 	c #52ABE5",
"Z 	c #53AAE4",
"` 	c #54ABE4",
" .	c #4BA7E3",
"..	c #A2CBE7",
"+.	c #0F619A",
"@.	c #60A4D1",
"#.	c #54ACE6",
"$.	c #76BCEA",
"%.	c #67B4E6",
"&.	c #5CAFE5",
"*.	c #9BCFF1",
"=.	c #70BAEB",
"-.	c #82C4EE",
";.	c #5E9FC9",
">.	c #277AB1",
",.	c #5F9FCB",
"'.	c #3585B9",
").	c #6DABD3",
"!.	c #68B4E7",
"~.	c #418DBF",
"{.	c #5E9CC4",
"].	c #76AACC",
"^.	c #247AB2",
"/.	c #16689F",
"(.	c #0E6197",
"_.	c #8CC8EF",
":.	c #5CB0E7",
"<.	c #7EBDE7",
"[.	c #3B89BD",
"}.	c #13669D",
"|.	c #2F76A5",
"1.	c #62A0C8",
"2.	c #69A3CA",
"3.	c #2D80B7",
"4.	c #005288",
"5.	c #0A5D94",
"6.	c #0D5E95",
"                                ",
"        . +     @ # $           ",
"      % & * = - ; > , '         ",
"        ) ! ~ { ! ! ] ^         ",
"        / ( _ : ( < [ } |       ",
"  1 2 3 4 5 6 7 8 5 9 0 a b c   ",
"  d e f g h i j k l m n o p q   ",
"  r s t u v w     x y z A B C   ",
"    D E F G H     I J K L q     ",
"      M N O P Q R S T U V       ",
"    W N T T X Y Z ` T  ...+.    ",
"    @.#.$.%.T N &.*.=.-.;.>.    ",
"      ,.'.).X T !.~.{.].^./.    ",
"        (.  _.:.<.[.}.          ",
"            |.1.2.3.4.          ",
"                5.6.            "};
