/* XPM */
static char const * gear_xpm[] = {
"48 48 481 2",
"  	c None",
". 	c #005188",
"+ 	c #03548B",
"@ 	c #186396",
"# 	c #C4DEF2",
"$ 	c #97C1DE",
"% 	c #1B6697",
"& 	c #03548A",
"* 	c #02538B",
"= 	c #4A87B1",
"- 	c #397CA9",
"; 	c #0D5A90",
"> 	c #C9E0F2",
", 	c #F4FAFF",
"' 	c #ECF7FF",
") 	c #E0F0FE",
"! 	c #9AC2DF",
"~ 	c #1D6798",
"{ 	c #03538B",
"] 	c #025389",
"^ 	c #186395",
"/ 	c #ABCFE9",
"( 	c #E8F5FF",
"_ 	c #679CC1",
": 	c #06578D",
"< 	c #B9D7EC",
"[ 	c #F2F9FF",
"} 	c #ECF6FF",
"| 	c #EFF8FF",
"1 	c #E1F1FE",
"2 	c #75A8CD",
"3 	c #01528A",
"4 	c #02528B",
"5 	c #6BA0C7",
"6 	c #DDEEFD",
"7 	c #EDF7FF",
"8 	c #EBF6FF",
"9 	c #E6F4FF",
"0 	c #98BFDC",
"a 	c #07568C",
"b 	c #025289",
"c 	c #A3C7E2",
"d 	c #F0F8FF",
"e 	c #E0F1FF",
"f 	c #E1F1FF",
"g 	c #EAF6FF",
"h 	c #F6FBFF",
"i 	c #D6E9F5",
"j 	c #287BB1",
"k 	c #0B5C93",
"l 	c #02548B",
"m 	c #ADCFE6",
"n 	c #EAF5FF",
"o 	c #DFF0FF",
"p 	c #E9F5FF",
"q 	c #C2DEF3",
"r 	c #256DA0",
"s 	c #84B0D1",
"t 	c #EEF7FF",
"u 	c #E7F4FF",
"v 	c #E2F2FF",
"w 	c #E4F0F8",
"x 	c #2F82B8",
"y 	c #1E70A7",
"z 	c #00528A",
"A 	c #D9EAF6",
"B 	c #E3F2FF",
"C 	c #DDF0FF",
"D 	c #E4F3FF",
"E 	c #D7EDFC",
"F 	c #8EBCDD",
"G 	c #E0EDF7",
"H 	c #0E5E95",
"I 	c #C9DFF0",
"J 	c #DBEEFE",
"K 	c #D8EDFE",
"L 	c #DCEFFE",
"M 	c #E8F4FE",
"N 	c #E6F3FE",
"O 	c #DDEFFE",
"P 	c #DEECF7",
"Q 	c #0C5D95",
"R 	c #B6D3E9",
"S 	c #D9EDFD",
"T 	c #D3EAFD",
"U 	c #D4EBFD",
"V 	c #DDEFFD",
"W 	c #D4EAFD",
"X 	c #DDECF6",
"Y 	c #A1C5DE",
"Z 	c #D6ECFD",
"` 	c #CDE8FC",
" .	c #D4EBFC",
"..	c #88B4D2",
"+.	c #D5EBFC",
"@.	c #C8E5FB",
"#.	c #D0E9FC",
"$.	c #DCEBF6",
"%.	c #6BA0C3",
"&.	c #D4EBFB",
"*.	c #C2E2FA",
"=.	c #CBE6FB",
"-.	c #E0EEF8",
";.	c #428FC2",
">.	c #3284BA",
",.	c #0A5B92",
"'.	c #005287",
").	c #4B89B3",
"!.	c #D4EAFB",
"~.	c #BCDFF9",
"{.	c #C5E3FA",
"].	c #F6FBFE",
"^.	c #DDEFFC",
"/.	c #D3EAFB",
"(.	c #BDDEF5",
"_.	c #9DC8E8",
":.	c #70A8CF",
"<.	c #4F8DBA",
"[.	c #1E699C",
"}.	c #015188",
"|.	c #0A5A8F",
"1.	c #4C8BB8",
"2.	c #D5EBFB",
"3.	c #B5DCF8",
"4.	c #C6E4FA",
"5.	c #D1E9FB",
"6.	c #DCEFFC",
"7.	c #E8F4FD",
"8.	c #F4FAFE",
"9.	c #FCFDFF",
"0.	c #C5DFF2",
"a.	c #11639A",
"b.	c #05578D",
"c.	c #2772A5",
"d.	c #5796C3",
"e.	c #96C4E6",
"f.	c #BEDFF6",
"g.	c #CEE8FA",
"h.	c #D0E8FA",
"i.	c #AFD8F7",
"j.	c #B1D9F7",
"k.	c #C5E3F9",
"l.	c #F6FAFE",
"m.	c #3082B9",
"n.	c #2577AE",
"o.	c #06588F",
"p.	c #03528B",
"q.	c #08588D",
"r.	c #81B8DD",
"s.	c #AFD7F4",
"t.	c #C4E2F8",
"u.	c #CDE7F9",
"v.	c #C3E2F8",
"w.	c #B8DDF7",
"x.	c #ACD7F6",
"y.	c #A8D5F5",
"z.	c #A6D3F3",
"A.	c #9DC8E6",
"B.	c #99C4E2",
"C.	c #98C5E3",
"D.	c #9DCCEC",
"E.	c #589ECB",
"F.	c #2E81B7",
"G.	c #0D5E95",
"H.	c #01538B",
"I.	c #4487B3",
"J.	c #CBE6F9",
"K.	c #B9DDF7",
"L.	c #ACD7F5",
"M.	c #A1D2F4",
"N.	c #A0D1F4",
"O.	c #A2CFED",
"P.	c #9BC4DF",
"Q.	c #74ACD0",
"R.	c #62A0C9",
"S.	c #66A3CB",
"T.	c #7DB1D3",
"U.	c #B1D0E4",
"V.	c #A0C9E3",
"W.	c #9ED0F3",
"X.	c #DEEFFB",
"Y.	c #97C3E2",
"Z.	c #2477AC",
"`.	c #72A8CF",
" +	c #B0D9F6",
".+	c #98CDF3",
"++	c #97CDF3",
"@+	c #95CCF3",
"#+	c #9CCCEE",
"$+	c #8ABAD8",
"%+	c #3C8ABC",
"&+	c #2B7EB4",
"*+	c #2171A6",
"=+	c #81ACC9",
"-+	c #A3C6DF",
";+	c #C5E0F2",
">+	c #2E80B7",
",+	c #01538A",
"'+	c #02548A",
")+	c #8DBDDF",
"!+	c #A3D2F3",
"~+	c #91C9F1",
"{+	c #8DC8F0",
"]+	c #8AC6F0",
"^+	c #86C4F0",
"/+	c #83C2EF",
"(+	c #82C2EF",
"_+	c #87C5F0",
":+	c #92C0DE",
"<+	c #3887BB",
"[+	c #1D70A6",
"}+	c #89AEC8",
"|+	c #8ABFE3",
"1+	c #85C4EF",
"2+	c #89C5F0",
"3+	c #90C9F1",
"4+	c #A4D3F3",
"5+	c #E8F4FB",
"6+	c #0A5A91",
"7+	c #04558C",
"8+	c #A3CEEB",
"9+	c #93CAF0",
"0+	c #88C5EF",
"a+	c #86C4EF",
"b+	c #7EC0EE",
"c+	c #7DC0EE",
"d+	c #95C9ED",
"e+	c #5C9DC7",
"f+	c #1F72A8",
"g+	c #02538A",
"h+	c #4882AA",
"i+	c #B3CFE3",
"j+	c #B9DDF5",
"k+	c #FFFFFF",
"l+	c #16689E",
"m+	c #00538A",
"n+	c #B5DAF3",
"o+	c #7CC0EE",
"p+	c #79BEED",
"q+	c #77BDED",
"r+	c #9BCAE8",
"s+	c #3E8BBD",
"t+	c #C0D5E3",
"u+	c #E0EDF6",
"v+	c #458FC0",
"w+	c #2274AA",
"x+	c #01528B",
"y+	c #5490BA",
"z+	c #A4D0EF",
"A+	c #72BAEC",
"B+	c #A1CCE8",
"C+	c #3183B9",
"D+	c #A8C4D7",
"E+	c #89C5EF",
"F+	c #74BBEC",
"G+	c #C6E3F6",
"H+	c #D0E4F1",
"I+	c #3D8ABD",
"J+	c #2072A9",
"K+	c #2B719F",
"L+	c #9CC9E8",
"M+	c #86C4EE",
"N+	c #6DB8EA",
"O+	c #A3CDE9",
"P+	c #05568D",
"Q+	c #AECADB",
"R+	c #82C2ED",
"S+	c #73BBEB",
"T+	c #D1E8F7",
"U+	c #C0DAEB",
"V+	c #3686BA",
"W+	c #2071A8",
"X+	c #135E92",
"Y+	c #85B7DA",
"Z+	c #90C9EE",
"`+	c #6AB6E9",
" @	c #68B5E9",
".@	c #9ECCEC",
"+@	c #2D80B7",
"@@	c #005189",
"#@	c #CCDEEB",
"$@	c #6DB7EA",
"%@	c #71BAEA",
"&@	c #DBEDF9",
"*@	c #ADCEE4",
"=@	c #1C6FA5",
"-@	c #08578D",
";@	c #629CC2",
">@	c #96CAED",
",@	c #69B6E9",
"'@	c #62B2E8",
")@	c #8CC7ED",
"!@	c #64A4CC",
"~@	c #2A7DB3",
"{@	c #015389",
"]@	c #76A2BF",
"^@	c #ADD2EA",
"/@	c #8BC6EE",
"(@	c #3082B8",
"_@	c #196BA2",
":@	c #5090B9",
"<@	c #A6D4F1",
"[@	c #5DB0E6",
"}@	c #67B5E7",
"|@	c #9CCAE6",
"1@	c #3384B9",
"2@	c #015289",
"3@	c #BBD3E3",
"4@	c #73BAE9",
"5@	c #D9ECF9",
"6@	c #7BB3D7",
"7@	c #2F81B8",
"8@	c #07588E",
"9@	c #87C0E5",
"0@	c #7BBEEB",
"a@	c #58ADE5",
"b@	c #84C3EB",
"c@	c #86BADB",
"d@	c #085A91",
"e@	c #ADC8DC",
"f@	c #96C9EB",
"g@	c #7FC0EB",
"h@	c #E4F1F9",
"i@	c #3284B9",
"j@	c #15689E",
"k@	c #5A9CC9",
"l@	c #8FC8EE",
"m@	c #57ACE5",
"n@	c #56ACE5",
"o@	c #57ADE5",
"p@	c #94CAED",
"q@	c #99C6E2",
"r@	c #4087B4",
"s@	c #81A9C5",
"t@	c #BAD4E4",
"u@	c #98CBEC",
"v@	c #CDE6F7",
"w@	c #87BBDD",
"x@	c #1C6EA5",
"y@	c #2C76A8",
"z@	c #9ACDEF",
"A@	c #5EB0E6",
"B@	c #7CBFEB",
"C@	c #AAD4EF",
"D@	c #BAD7EA",
"E@	c #BED9EB",
"F@	c #A9D1EC",
"G@	c #75BBEA",
"H@	c #EBF5FB",
"I@	c #3786BB",
"J@	c #04568D",
"K@	c #0F5F93",
"L@	c #8FC4E7",
"M@	c #6EB8E9",
"N@	c #C1E1F6",
"O@	c #96C3E2",
"P@	c #68A5CC",
"Q@	c #83C2EC",
"R@	c #6BB6E8",
"S@	c #2E81B8",
"T@	c #06578F",
"U@	c #4083AF",
"V@	c #9DCFEF",
"W@	c #59AEE6",
"X@	c #7EC0EB",
"Y@	c #FDFEFF",
"Z@	c #3384BA",
"`@	c #21689A",
" #	c #9ACBEC",
".#	c #5BAFE6",
"+#	c #5BAEE6",
"@#	c #E4F2FB",
"##	c #6FABD2",
"$#	c #075890",
"%#	c #5594BD",
"&#	c #8AC4EC",
"*#	c #71B9E9",
"=#	c #99CDEF",
"-#	c #74BBEA",
";#	c #ABD6F2",
">#	c #BDDBEF",
",#	c #2174AA",
"'#	c #02528A",
")#	c #79B1D5",
"!#	c #76BCEA",
"~#	c #79BDEA",
"{#	c #9CCDEE",
"]#	c #8DC1E3",
"^#	c #95C2DE",
"/#	c #83C0E9",
"(#	c #F4F9FD",
"_#	c #E9F2F9",
":#	c #EFF7FC",
"<#	c #C5E2F5",
"[#	c #6DB7E8",
"}#	c #72BAE9",
"|#	c #EEF6FC",
"1#	c #428EC0",
"2#	c #2275AB",
"3#	c #105D90",
"4#	c #90C2E4",
"5#	c #83C2EB",
"6#	c #96C7E8",
"7#	c #72AFD7",
"8#	c #428EBF",
"9#	c #3F8CBE",
"0#	c #A6CEE7",
"a#	c #59ADE5",
"b#	c #D9EBF6",
"c#	c #418DBE",
"d#	c #77AED1",
"e#	c #B1D2E7",
"f#	c #E7F2F9",
"g#	c #E8F3FA",
"h#	c #84BADC",
"i#	c #2E81B6",
"j#	c #2A72A2",
"k#	c #93C3E2",
"l#	c #5D9FCA",
"m#	c #3585BA",
"n#	c #87B8D8",
"o#	c #7DBFEA",
"p#	c #A4D2F1",
"q#	c #9CC7E3",
"r#	c #4B93C1",
"s#	c #72ABD0",
"t#	c #1669A0",
"u#	c #03548C",
"v#	c #03558B",
"w#	c #2477AD",
"x#	c #4B91BF",
"y#	c #A6CFEB",
"z#	c #D7EBF9",
"A#	c #599CC7",
"B#	c #1F71A8",
"C#	c #0E5F96",
"D#	c #297CB2",
"E#	c #13659B",
"F#	c #2C7FB5",
"G#	c #0E5F95",
"H#	c #8DB5D0",
"I#	c #DEEEF8",
"J#	c #116298",
"K#	c #005087",
"L#	c #2073A9",
"M#	c #095B91",
"N#	c #02558B",
"O#	c #407EA7",
"P#	c #A5D1ED",
"Q#	c #9ECFF0",
"R#	c #A3CBE6",
"S#	c #015189",
"T#	c #C2DBEB",
"U#	c #9DCFF0",
"V#	c #87C4ED",
"W#	c #68B5E8",
"X#	c #5DAFE6",
"Y#	c #D1E9F8",
"Z#	c #5FA1CA",
"`#	c #2376AC",
" $	c #3275A2",
".$	c #86BBDE",
"+$	c #98C7E6",
"@$	c #AAD2EB",
"#$	c #BDDCF1",
"$$	c #CEE6F6",
"%$	c #E2F0FA",
"&$	c #F3F9FD",
"*$	c #13659C",
"=$	c #005488",
"-$	c #04548B",
";$	c #13659A",
">$	c #2679AF",
",$	c #03538A",
"'$	c #186AA1",
")$	c #1C6EA4",
"!$	c #2173AA",
"~$	c #297CB1",
"{$	c #15669E",
"]$	c #005389",
"^$	c #04558D",
"                                                                                                ",
"                                                    . +                                         ",
"                                                  @ # $ % &                                     ",
"                            * = -               ; > , ' ) ! ~ {                                 ",
"                        ] ^ / ( ) _ .         : < [ ( } , | 1 2 3                               ",
"                      4 5 6 7 8 7 9 0 a     b c d 9 e e f g h i j k l                           ",
"                    { m n n f o f n p q r . s t u o o o o o v w x x y .                         ",
"                    z A B C C C C C D 8 E F ( u C C C C C C e G x x x H                         ",
"                      I J K K K K K K L M } N K K K K K K K O P x x x Q                         ",
"                      R S T T T T T T T U V W T T T T T T T S X x x x Q                         ",
"                      Y Z ` ` ` ` ` ` ` ` ` ` ` ` ` ` ` ` `  .X x x x Q                         ",
"                      ..+.@.@.@.@.@.@.@.@.@.@.@.@.@.@.@.@.@.#.$.x x x Q                         ",
"                      %.&.*.*.*.*.*.*.*.*.*.*.*.*.*.*.*.*.*.=.-.;.>.x ,.'.                      ",
"                      ).!.~.~.~.~.~.~.~.~.~.~.~.~.~.~.~.~.~.{.].^./.(._.:.<.[.}.                ",
"                    |.1.2.3.3.3.3.3.3.3.3.3.3.3.3.3.3.3.3.3.3.4.5.6.7.8.9.].0.a.b               ",
"            b.c.d.e.f.g.h.i.i.i.i.i.i.i.i.i.i.i.i.i.i.i.i.i.i.i.i.i.i.i.j.k.l.m.n.o.p.          ",
"        q.r.s.t.u.v.w.x.y.y.y.y.y.y.y.z.A.B.B.C.D.y.y.y.y.y.y.y.y.y.y.y.y.y.].E.x F.G.H.        ",
"        I.J.K.L.M.N.N.N.N.N.N.N.N.N.O.P.Q.R.S.T.U.V.W.N.N.N.N.N.N.N.N.N.N.N.X.Y.x x Z.+         ",
"        `. +.+.+.+.+.+.+.+.+.+++@+#+$+%+x x x &+*+=+-+@+.+.+.+.+.+.+.+.+.+.+v.;+x x >+,+        ",
"      '+)+!+~+~+~+~+~+{+]+^+/+(+_+:+<+x x x [+* +   }+|+/+1+2+{+3+~+~+~+~+~+4+5+x x x 6+        ",
"      7+8+9+0+0+a+(+b+c+c+c+c+c+d+e+x x x f+g+      h+i+c+c+c+c+b+(+a+0+0+0+j+k+x x x l+m+      ",
"      . n+a+o+p+q+q+q+q+q+q+q+q+r+s+x x &++           t+b+q+q+q+q+q+q+p+c+f.u+v+x x x w+7+      ",
"      x+y+z+b+A+A+A+A+A+A+A+A+A+B+C+x x l+*           D+E+A+A+A+A+A+A+F+G+H+I+x x x x J+.       ",
"          K+L+M+N+N+N+N+N+N+N+N+O+C+x x P+            Q+R+N+N+N+N+N+S+T+U+V+x x x x W+b         ",
"            X+Y+Z+`+ @ @ @ @ @ @.@s+x +@@@            #@$@ @ @ @ @%@&@*@C+x x x x =@'+          ",
"              -@;@>@,@'@'@'@'@'@)@!@x ~@{@          ]@^@'@'@'@'@'@/@k+(@x x x x _@l             ",
"                b :@<@[@[@[@[@[@}@|@1@>+2@          3@4@[@[@[@[@[@[@5@6@x x 7@l+g+              ",
"                8@9@0@a@a@a@a@a@a@b@c@C+d@        e@f@a@a@a@a@a@a@a@g@h@i@x j@}.                ",
"                k@l@m@n@n@n@n@n@n@o@p@q@r@:   s@t@u@m@n@n@n@n@n@n@n@n@v@w@x x@g+                ",
"              y@z@A@n@n@n@n@n@n@n@n@n@B@C@D@E@F@G@n@n@n@n@n@n@n@n@n@n@4@H@I@F.J@                ",
"            K@L@M@n@n@n@n@n@n@n@n@n@n@n@n@n@n@n@n@n@n@n@n@n@n@n@n@n@n@n@N@O@x y *               ",
"            P@Q@n@n@n@n@n@n@n@n@n@n@n@n@n@n@n@n@n@n@n@n@n@n@n@n@n@n@n@n@R@k+I@S@T@              ",
"          U@V@W@n@n@n@n@n@n@n@n@n@n@n@n@n@n@n@n@n@n@n@n@n@n@n@n@n@n@n@n@X@Y@Z@x f+l             ",
"          `@ #.#n@n@n@n@n@n@n@n@n@n@n@n@n@n@n@n@n@n@n@n@n@n@n@n@n@n@n@+#@###x x 7@$#            ",
"          & %#&#n@n@n@n@n@m@*#=#[@n@n@n@n@n@n@n@n@n@n@*#-#m@n@n@n@n@n@;#>#x x x x ,#'#          ",
"            + )#!#n@n@.#~#{#]#^#/#n@n@n@n@n@n@n@n@n@n@(#_#:#<#=#[#n@}#|#1#x x x x 2#.           ",
"              3#4#}#5#6#7#8#x 9#0#a#n@n@n@n@n@n@n@n@*#b#x c#d#e#f#g#k+h#x x x x i#P+            ",
"                j#k#l#m#x x x x n#o#n@n@n@n@n@n@n@n@p#q#x x x x x r#s#(@x x x x t#u#            ",
"                2@v#w#x x x x x x#y#n@n@n@n@n@n@n@n@z#A#x x x B#. C#=@D#x x x j g+              ",
"                    g+E#F#S@,#G#. H#4@n@n@n@n@n@n@[#I#x x x x J#K#  u#{@P+E#L#M#                ",
"                      ] . '+N#    O#P#n@n@n@n@n@n@Q#R#x x x S@'#            * S#                ",
"                                    T#U#V#X@-#W#X#Y#Z#x x x `#'+                                ",
"                                     $.$+$@$#$$$%$&$C+x x x *$=$                                ",
"                                    @@+ Z.x x x x x x x x 7@-$                                  ",
"                                        g+;$F#x x x x x x >$'+                                  ",
"                                          ,$'+E#'$)$!$w#~${$b                                   ",
"                                                ]$& ^${ g+.                                     ",
"                                                                                                "};
