/* XPM */
static char const * stop_xpm[] = {
"10 10 20 1",
" 	c #642123",
".	c #E4B1B2",
"+	c #CB6266",
"@	c #9F3538",
"#	c #8D2F32",
"$	c #963135",
"%	c #9D3438",
"&	c #A5373A",
"*	c #AE393D",
"=	c #8B2E31",
"-	c #B73D41",
";	c #BE3F43",
">	c #A3363A",
",	c #BF4044",
"'	c #C2484C",
")	c #AC393D",
"!	c #C55256",
"~	c #C2494D",
"{	c #C8595D",
"]	c #451718",
"          ",
" .++++++@ ",
" +##$%&*= ",
" +#$%&*-= ",
" +$%&*-;= ",
" +%>*-,'= ",
" +>)-;'!= ",
" +)-;~!{= ",
" @======] ",
"          "};
