/* XPM */
static char const * fixy_xpm[] = {
"11 11 3 1",
" 	c None",
".	c #000000",
"+	c #00D2FF",
"     .     ",
"    .+.    ",
"   .+++.   ",
"  .+++++.  ",
" .+++++++. ",
"...........",
"    .+.    ",
"   .+++.   ",
"   .+++.   ",
"    .+.    ",
"..........."};
